<svg xmlns="http://www.w3.org/2000/svg" xmlns:xlink="http://www.w3.org/1999/xlink" width="375" viewBox="0 0 375 375" height="375" version="1.0"><defs><g id="d"><path d="M 52.671875 0 L 32.242188 -43.738281 L 11.621094 -43.738281 L 11.621094 -33.742188 L 16.308594 -33.742188 L 0.625 0 L 11.558594 0 L 15.058594 -7.496094 L 38.175781 -7.496094 L 41.738281 0 Z M 33.492188 -17.496094 L 19.683594 -17.496094 L 26.367188 -33.929688 L 26.804688 -33.929688 Z M 33.492188 -17.496094"/></g><g id="e"><path d="M 38.113281 -10.621094 L 44.363281 -16.871094 L 44.363281 -37.488281 L 38.113281 -43.738281 L 0.3125 -43.738281 L 0.3125 -33.742188 L 34.367188 -33.742188 L 34.367188 -20.621094 L 14.996094 -20.621094 L 14.996094 -30.617188 L 5 -30.617188 L 5 0 L 14.996094 0 L 14.996094 -10.621094 Z M 38.113281 -10.621094"/></g><g id="f"><path d="M 43.113281 0 L 43.113281 -9.996094 L 14.996094 -9.996094 L 14.996094 -16.871094 L 36.863281 -16.871094 L 36.863281 -26.867188 L 14.996094 -26.867188 L 14.996094 -33.742188 L 43.113281 -33.742188 L 43.113281 -43.738281 L 0.3125 -43.738281 L 0.3125 -33.742188 L 5 -33.742188 L 5 0 Z M 43.113281 0"/></g><g id="g"><path d="M 38.425781 0 L 44.675781 -6.25 L 44.675781 -20.621094 L 38.425781 -26.867188 L 13.121094 -26.867188 L 13.121094 -33.742188 L 44.675781 -33.742188 L 44.675781 -43.738281 L 9.371094 -43.738281 L 3.125 -37.488281 L 3.125 -23.117188 L 9.371094 -16.871094 L 34.679688 -16.871094 L 34.679688 -9.996094 L 3.125 -9.996094 L 3.125 0 Z M 38.425781 0"/></g><g id="h"><path d="M 42.488281 0 L 48.738281 -6.25 L 48.738281 -37.488281 L 42.488281 -43.738281 L 9.371094 -43.738281 L 3.125 -37.488281 L 3.125 -6.25 L 9.371094 0 Z M 38.738281 -9.996094 L 13.121094 -9.996094 L 13.121094 -33.742188 L 38.738281 -33.742188 Z M 38.738281 -9.996094"/></g><g id="i"><path d="M 38.113281 -10.621094 L 44.363281 -16.871094 L 44.363281 -37.488281 L 38.113281 -43.738281 L 0.3125 -43.738281 L 0.3125 -33.742188 L 34.367188 -33.742188 L 34.367188 -20.621094 L 14.996094 -20.621094 L 14.996094 -30.617188 L 5 -30.617188 L 5 0 L 14.996094 0 L 14.996094 -10.621094 L 25.429688 -10.621094 C 28.554688 -7.058594 31.617188 -3.5 34.804688 0 L 47.488281 0 C 44.300781 -3.5 41.238281 -7.058594 38.113281 -10.621094 Z M 38.113281 -10.621094"/></g><g id="j"><path d="M 27.554688 0 L 27.554688 -33.742188 L 44.800781 -33.742188 L 44.800781 -43.738281 L 0.3125 -43.738281 L 0.3125 -33.742188 L 17.558594 -33.742188 L 17.558594 0 Z M 27.554688 0"/></g><clipPath id="a"><path d="M 20.191406 250.683594 L 106.441406 250.683594 L 106.441406 359.433594 L 20.191406 359.433594 Z M 20.191406 250.683594"/></clipPath><clipPath id="b"><path d="M 266.679688 13.53125 L 337 13.53125 L 337 129 L 266.679688 129 Z M 266.679688 13.53125"/></clipPath><clipPath id="c"><path d="M 266.679688 13.53125 L 337.179688 13.53125 L 337.179688 129.03125 L 266.679688 129.03125 Z M 266.679688 13.53125"/></clipPath></defs><g clip-path="url(#a)"><path d="M 62.707031 277.164062 C 62.734375 277.164062 62.824219 277.214844 62.90625 277.269531 C 63.078125 277.398438 63.207031 277.550781 63.363281 277.796875 C 63.503906 278.011719 63.523438 278.421875 63.421875 278.871094 C 63.332031 279.261719 63.34375 280.1875 63.449219 280.953125 C 63.496094 281.289062 63.558594 282.027344 63.597656 282.605469 C 63.6875 283.953125 63.875 285.964844 63.984375 286.757812 C 64.140625 287.878906 64.441406 289.070312 64.660156 289.449219 C 64.835938 289.75 64.894531 289.945312 64.835938 290.050781 C 64.808594 290.105469 64.765625 290.132812 64.703125 290.132812 C 64.609375 290.132812 64.476562 290.070312 64.296875 289.949219 C 63.824219 289.625 63.207031 289.476562 62.308594 289.476562 C 62.226562 289.476562 62.140625 289.480469 62.054688 289.480469 C 61.945312 289.484375 61.855469 289.484375 61.777344 289.484375 C 61.507812 289.484375 61.414062 289.464844 61.261719 289.390625 C 61.007812 289.269531 60.601562 288.875 60.472656 288.636719 C 60.425781 288.550781 60.351562 288.425781 60.300781 288.355469 C 60.253906 288.289062 60.101562 288.066406 59.96875 287.863281 C 59.824219 287.636719 59.417969 287.183594 58.941406 286.707031 C 58.511719 286.277344 58 285.710938 57.800781 285.453125 C 57.214844 284.679688 56.058594 282.949219 55.878906 282.574219 C 55.355469 281.480469 55.035156 280.617188 55.015625 280.230469 C 54.984375 279.777344 55.359375 279.53125 56.414062 279.296875 C 57.121094 279.144531 57.707031 278.984375 58.355469 278.777344 C 58.542969 278.714844 58.824219 278.625 58.972656 278.582031 C 59.121094 278.535156 59.265625 278.484375 59.292969 278.460938 C 59.320312 278.4375 59.421875 278.402344 59.515625 278.382812 C 59.609375 278.359375 59.753906 278.3125 59.835938 278.277344 C 59.917969 278.242188 60.109375 278.164062 60.257812 278.105469 C 60.808594 277.898438 61.269531 277.714844 61.316406 277.679688 C 61.460938 277.574219 62.5625 277.167969 62.707031 277.164062 Z M 73.730469 250.675781 C 73.496094 250.675781 73.242188 250.679688 72.945312 250.6875 C 72.039062 250.714844 71.773438 250.738281 71.398438 250.828125 C 70.476562 251.0625 69.707031 251.390625 69.285156 251.738281 C 69.175781 251.824219 69 251.960938 68.894531 252.035156 C 68.695312 252.175781 68.121094 252.773438 67.792969 253.179688 C 67.621094 253.382812 67.617188 253.390625 67.003906 253.519531 C 66.003906 253.726562 65.234375 254.035156 64.867188 254.371094 C 64.421875 254.777344 63.8125 255.75 63.246094 256.984375 C 62.585938 258.410156 62.417969 258.738281 62.078125 259.265625 C 61.527344 260.117188 61.101562 260.496094 60.386719 260.757812 C 59.84375 260.953125 59.699219 261.035156 59.296875 261.371094 C 58.875 261.71875 58.808594 261.796875 58.671875 262.082031 C 58.570312 262.296875 58.566406 262.394531 58.558594 263.902344 C 58.554688 265.355469 58.546875 265.519531 58.453125 265.78125 C 58.273438 266.300781 57.6875 267.0625 57.308594 267.261719 C 57.234375 267.300781 57.175781 267.355469 57.175781 267.382812 C 57.175781 267.40625 57.117188 267.460938 57.039062 267.503906 L 56.90625 267.582031 L 57.085938 267.582031 C 57.269531 267.582031 57.734375 267.363281 58.320312 267.011719 C 58.535156 266.878906 58.675781 266.820312 58.785156 266.820312 C 58.867188 266.820312 58.929688 266.851562 58.996094 266.917969 C 59.15625 267.089844 59.207031 267.273438 59.214844 267.707031 C 59.21875 268.074219 59.230469 268.105469 59.339844 268.152344 C 59.375 268.167969 59.40625 268.179688 59.433594 268.179688 C 59.488281 268.179688 59.539062 268.144531 59.636719 268.070312 C 59.953125 267.820312 60.105469 267.574219 60.15625 267.234375 C 60.242188 266.640625 60.460938 266.367188 61.152344 266.011719 C 61.785156 265.675781 62.28125 265.160156 62.714844 264.375 C 62.914062 264.015625 63.074219 263.824219 63.171875 263.824219 C 63.199219 263.824219 63.21875 263.839844 63.234375 263.863281 C 63.261719 263.902344 63.285156 264.136719 63.289062 264.378906 C 63.292969 264.847656 63.359375 265.042969 63.519531 265.042969 C 63.53125 265.042969 63.546875 265.042969 63.558594 265.039062 C 63.761719 265.007812 63.832031 264.769531 63.859375 264.023438 C 63.886719 263.207031 63.96875 262.894531 64.226562 262.6875 C 64.367188 262.570312 64.492188 262.511719 64.582031 262.511719 C 64.628906 262.511719 64.667969 262.527344 64.695312 262.5625 C 64.828125 262.714844 64.601562 263.878906 64.285156 264.71875 C 64.144531 265.085938 64.109375 265.289062 64.179688 265.289062 C 64.261719 265.289062 64.539062 265.085938 64.605469 264.972656 C 64.644531 264.910156 64.769531 264.632812 64.875 264.359375 C 65.363281 263.136719 65.683594 262.574219 66.121094 262.183594 C 66.261719 262.054688 66.4375 261.863281 66.511719 261.753906 C 66.636719 261.566406 66.644531 261.519531 66.636719 261.074219 C 66.628906 260.722656 66.597656 260.496094 66.503906 260.226562 C 66.351562 259.753906 66.328125 259.285156 66.449219 259.222656 C 66.5 259.199219 66.578125 259.15625 66.621094 259.132812 C 66.6875 259.101562 66.703125 259.046875 66.6875 258.945312 C 66.644531 258.648438 66.652344 258.363281 66.703125 258.34375 C 66.714844 258.339844 66.726562 258.339844 66.738281 258.339844 C 66.839844 258.339844 66.925781 258.503906 66.929688 258.714844 C 66.933594 259.058594 67.089844 260.136719 67.183594 260.539062 C 67.394531 261.421875 67.777344 262.148438 68.242188 262.539062 C 68.324219 262.609375 68.601562 262.792969 68.867188 262.953125 C 69.636719 263.425781 69.832031 263.824219 69.847656 264.949219 C 69.855469 265.441406 69.835938 265.585938 69.75 265.8125 C 69.691406 265.960938 69.625 266.117188 69.589844 266.15625 C 69.5625 266.199219 69.507812 266.296875 69.46875 266.378906 C 69.34375 266.644531 68.890625 267.105469 68.625 267.242188 C 68.480469 267.3125 68.15625 267.429688 67.898438 267.496094 C 67.640625 267.566406 67.152344 267.695312 66.808594 267.785156 C 65.851562 268.042969 65.167969 268.257812 64.585938 268.480469 C 64.4375 268.539062 64.234375 268.617188 64.140625 268.652344 C 63.074219 269.058594 61.136719 270.074219 59.800781 270.929688 C 58.691406 271.644531 58.519531 271.765625 58.175781 272.066406 C 58.007812 272.210938 57.765625 272.417969 57.625 272.527344 C 57.488281 272.636719 57.269531 272.820312 57.140625 272.941406 C 57.011719 273.0625 56.75 273.269531 56.550781 273.40625 C 56.125 273.707031 54.765625 274.554688 54.253906 274.835938 C 54.050781 274.949219 53.742188 275.128906 53.566406 275.234375 C 53.386719 275.335938 53.101562 275.503906 52.925781 275.605469 C 52.75 275.703125 52.582031 275.8125 52.554688 275.839844 C 52.527344 275.871094 52.253906 276.070312 51.941406 276.285156 C 50.757812 277.082031 50.644531 277.164062 50.101562 277.621094 C 49.496094 278.121094 49.429688 278.199219 49.242188 278.59375 C 48.933594 279.25 48.886719 280.585938 49.136719 281.496094 C 49.257812 281.9375 49.617188 282.722656 49.820312 282.992188 C 50.660156 284.105469 50.898438 284.371094 51.839844 285.289062 C 54.53125 287.925781 54.921875 288.257812 56.34375 289.15625 C 56.636719 289.335938 56.953125 289.558594 57.046875 289.652344 C 57.582031 290.152344 58.15625 290.941406 58.617188 291.792969 C 59.605469 293.625 60.199219 294.390625 61.078125 294.953125 C 61.304688 295.101562 61.625 295.359375 61.792969 295.53125 C 62.144531 295.90625 62.359375 296.042969 62.582031 296.042969 C 62.582031 296.042969 62.585938 296.042969 62.589844 296.042969 C 62.59375 296.042969 62.59375 296.042969 62.597656 296.042969 C 62.839844 296.042969 63.097656 296.164062 63.097656 296.28125 C 63.101562 296.421875 62.945312 296.75 62.660156 297.214844 C 62.355469 297.710938 61.527344 299.21875 61.339844 299.625 C 60.90625 300.550781 60.617188 301.4375 60.398438 302.449219 C 60.308594 302.875 60.296875 303.070312 60.3125 304.269531 C 60.324219 305.367188 60.34375 305.691406 60.417969 306.011719 C 60.472656 306.230469 60.535156 306.507812 60.5625 306.632812 C 60.640625 306.984375 60.796875 307.363281 61.074219 307.894531 C 61.355469 308.4375 61.429688 308.730469 61.351562 309.039062 C 61.304688 309.230469 60.957031 309.90625 60.644531 310.390625 C 60.238281 311.039062 59.441406 312.878906 59.039062 314.101562 C 58.882812 314.578125 58.457031 315.753906 58.175781 316.503906 C 58.023438 316.914062 57.792969 317.527344 57.675781 317.855469 C 57.554688 318.1875 57.433594 318.503906 57.410156 318.558594 C 57.386719 318.613281 57.300781 318.847656 57.21875 319.082031 C 57.140625 319.3125 56.917969 319.84375 56.730469 320.261719 C 56.542969 320.671875 56.367188 321.09375 56.332031 321.1875 C 56.15625 321.699219 55.804688 322.429688 55.628906 322.648438 C 55.308594 323.042969 54.839844 323.242188 54.210938 323.242188 C 53.578125 323.242188 52.785156 323.042969 51.8125 322.648438 C 50.992188 322.316406 50.363281 322.144531 49.542969 322.027344 C 49.03125 321.957031 48.414062 321.917969 47.875 321.917969 C 47.53125 321.917969 47.222656 321.933594 46.988281 321.964844 C 46.117188 322.082031 45.574219 322.179688 45.230469 322.269531 C 44.886719 322.355469 44.75 322.390625 43.523438 322.722656 C 42.6875 322.945312 42.660156 322.953125 41.867188 323.144531 C 41.484375 323.238281 41.027344 323.347656 40.847656 323.378906 C 40.519531 323.441406 40.066406 323.558594 39.59375 323.695312 C 39.453125 323.734375 39.265625 323.78125 39.171875 323.800781 C 39.078125 323.816406 38.863281 323.878906 38.703125 323.933594 C 38.164062 324.105469 37.746094 324.195312 36.523438 324.40625 C 36.363281 324.441406 35.96875 324.488281 35.65625 324.523438 C 35.34375 324.558594 34.839844 324.609375 34.542969 324.644531 C 34.269531 324.675781 33.800781 324.699219 33.453125 324.699219 C 33.417969 324.699219 33.382812 324.699219 33.351562 324.695312 C 32.53125 324.683594 32.386719 324.621094 31.578125 323.9375 C 31.375 323.757812 31 323.449219 30.75 323.25 C 30.15625 322.769531 29.136719 321.777344 28.878906 321.429688 C 28.492188 320.917969 28.234375 320.710938 27.925781 320.710938 C 27.847656 320.710938 27.761719 320.722656 27.671875 320.75 C 27.542969 320.78125 27.355469 320.875 27.253906 320.945312 C 27.003906 321.128906 26.25 321.921875 25.976562 322.296875 C 25.855469 322.464844 25.675781 322.710938 25.566406 322.851562 C 25 323.613281 24.417969 324.625 24.144531 325.335938 C 23.910156 325.945312 23.863281 326.148438 23.824219 326.761719 C 23.765625 327.667969 23.667969 328.222656 23.527344 328.441406 C 23.464844 328.539062 23.210938 328.867188 22.96875 329.171875 C 22.722656 329.472656 22.464844 329.816406 22.394531 329.933594 C 22.320312 330.050781 22.152344 330.328125 22.011719 330.546875 C 21.121094 331.972656 20.585938 333.289062 20.3125 334.699219 C 20.1875 335.363281 20.195312 336.847656 20.328125 337.472656 C 20.523438 338.414062 20.78125 338.972656 21.148438 339.246094 C 21.335938 339.386719 21.726562 339.488281 22.007812 339.488281 C 22.082031 339.488281 22.148438 339.480469 22.203125 339.464844 C 22.472656 339.386719 22.519531 339.351562 23.757812 338.195312 C 24.054688 337.914062 24.273438 337.570312 24.421875 337.136719 C 24.613281 336.582031 24.753906 336.253906 24.878906 336.050781 C 24.945312 335.945312 25.394531 335.460938 25.871094 334.976562 C 26.351562 334.492188 26.9375 333.871094 27.175781 333.59375 C 27.414062 333.320312 27.777344 332.960938 27.980469 332.796875 C 28.183594 332.636719 28.386719 332.472656 28.425781 332.4375 C 28.464844 332.402344 28.605469 332.28125 28.742188 332.171875 C 28.875 332.0625 29.242188 331.714844 29.558594 331.40625 C 30.03125 330.929688 30.214844 330.777344 30.457031 330.777344 C 30.53125 330.777344 30.613281 330.792969 30.710938 330.816406 C 30.839844 330.847656 30.992188 330.863281 31.132812 330.863281 C 31.3125 330.863281 31.480469 330.835938 31.574219 330.785156 C 31.652344 330.742188 31.878906 330.519531 32.082031 330.292969 C 32.648438 329.644531 32.515625 329.675781 35.160156 329.640625 C 35.628906 329.636719 36.050781 329.632812 36.414062 329.632812 C 37.132812 329.632812 37.628906 329.644531 37.839844 329.667969 C 38.113281 329.695312 38.6875 329.734375 39.117188 329.753906 C 39.542969 329.773438 40.199219 329.820312 40.582031 329.851562 C 42.125 330.003906 42.890625 330.050781 44.035156 330.050781 C 44.3125 330.050781 44.609375 330.046875 44.945312 330.042969 C 46.050781 330.027344 46.835938 329.992188 47.101562 329.949219 C 47.859375 329.828125 49.28125 329.746094 50.371094 329.746094 C 50.757812 329.746094 51.101562 329.753906 51.359375 329.777344 C 51.878906 329.820312 52.519531 329.917969 52.886719 330.007812 C 52.996094 330.039062 53.273438 330.097656 53.507812 330.144531 C 53.742188 330.191406 54.1875 330.285156 54.503906 330.347656 C 55.199219 330.5 56.335938 330.644531 56.863281 330.644531 C 56.875 330.644531 56.886719 330.644531 56.898438 330.644531 C 57.304688 330.636719 57.785156 330.542969 58.226562 330.371094 C 58.785156 330.152344 59.71875 329.496094 60.339844 328.886719 C 60.804688 328.425781 61.683594 327.382812 62.070312 326.832031 C 62.90625 325.644531 63.414062 325.070312 64.34375 324.265625 C 66.332031 322.546875 66.683594 322.179688 67.320312 321.203125 C 67.609375 320.773438 68.242188 319.921875 68.523438 319.59375 C 68.996094 319.046875 69.511719 318.257812 69.613281 317.933594 C 69.644531 317.824219 69.726562 317.648438 69.789062 317.542969 C 69.863281 317.417969 69.90625 317.371094 69.96875 317.371094 C 69.984375 317.371094 70 317.375 70.015625 317.378906 C 70.078125 317.398438 70.625 317.894531 71.234375 318.484375 C 71.84375 319.066406 72.441406 319.636719 72.566406 319.738281 C 73.035156 320.140625 74.828125 321.90625 75.09375 322.238281 C 75.25 322.425781 75.714844 322.917969 76.121094 323.324219 C 76.691406 323.886719 76.992188 324.144531 77.375 324.382812 C 77.648438 324.558594 77.964844 324.769531 78.070312 324.855469 C 78.277344 325.011719 78.726562 325.558594 79.210938 326.21875 C 79.363281 326.429688 79.757812 326.871094 80.078125 327.203125 C 80.773438 327.910156 80.957031 328.21875 81.164062 329.050781 C 81.199219 329.199219 81.253906 329.410156 81.285156 329.519531 C 81.316406 329.628906 81.371094 329.976562 81.402344 330.289062 C 81.441406 330.605469 81.480469 330.878906 81.488281 330.890625 C 81.496094 330.90625 81.539062 331.445312 81.578125 332.085938 C 81.65625 333.398438 81.828125 334.917969 81.941406 335.347656 C 81.984375 335.507812 82.085938 335.894531 82.160156 336.207031 C 82.359375 337.03125 82.753906 338.25 82.96875 338.710938 C 82.992188 338.765625 83.082031 338.996094 83.167969 339.226562 C 83.304688 339.582031 83.960938 340.878906 84.082031 341.03125 C 84.109375 341.058594 84.183594 341.183594 84.257812 341.308594 C 84.445312 341.636719 85.332031 343.050781 85.449219 343.210938 C 85.503906 343.292969 85.617188 343.453125 85.699219 343.574219 C 85.957031 343.96875 86.5625 344.863281 86.90625 345.378906 C 87.238281 345.871094 87.941406 347.023438 88.304688 347.675781 C 88.511719 348.039062 88.726562 348.429688 88.792969 348.539062 C 88.851562 348.648438 88.996094 348.90625 89.113281 349.105469 C 89.230469 349.308594 89.5625 349.949219 89.859375 350.527344 C 90.46875 351.722656 90.476562 351.738281 90.257812 352.417969 C 90.089844 352.949219 90.078125 353.421875 90.210938 353.988281 C 90.351562 354.566406 90.652344 355.050781 91.332031 355.773438 C 91.609375 356.070312 91.765625 356.292969 91.949219 356.660156 C 92.289062 357.335938 92.535156 357.855469 92.640625 358.121094 C 92.785156 358.472656 92.894531 358.675781 93.019531 358.816406 C 93.222656 359.058594 93.644531 359.292969 94.019531 359.371094 C 94.175781 359.40625 94.269531 359.421875 94.34375 359.421875 C 94.429688 359.421875 94.496094 359.402344 94.609375 359.363281 C 95.109375 359.1875 95.507812 359.011719 96.09375 358.703125 C 96.585938 358.449219 96.777344 358.316406 97.125 357.980469 C 97.363281 357.757812 97.683594 357.472656 97.851562 357.339844 C 98.253906 357.019531 98.445312 356.789062 98.511719 356.53125 C 98.617188 356.09375 98.703125 355.890625 98.828125 355.789062 C 98.945312 355.699219 99.65625 355.429688 99.796875 355.429688 C 99.828125 355.425781 100.011719 355.375 100.199219 355.308594 C 101.015625 355.023438 103.199219 353.335938 104.625 351.886719 C 105.390625 351.109375 105.550781 350.871094 105.847656 350.085938 C 105.902344 349.945312 106.007812 349.664062 106.085938 349.460938 C 106.296875 348.898438 106.4375 348.136719 106.410156 347.703125 C 106.359375 347.011719 106.0625 346.191406 105.75 345.882812 C 105.550781 345.691406 105.402344 345.621094 105.058594 345.535156 C 104.984375 345.515625 104.90625 345.507812 104.824219 345.507812 C 104.433594 345.507812 103.933594 345.722656 102.949219 346.296875 C 102.71875 346.429688 102.414062 346.589844 102.121094 346.722656 C 100.171875 347.636719 100.128906 347.648438 98.207031 347.734375 C 97.34375 347.773438 96.484375 347.839844 96.160156 347.890625 C 95.835938 347.941406 95.535156 347.96875 95.269531 347.96875 C 94.738281 347.96875 94.332031 347.867188 94.121094 347.675781 C 93.929688 347.503906 93.917969 347.480469 93.378906 345.90625 C 93.324219 345.730469 93.191406 345.417969 93.09375 345.214844 C 92.605469 344.199219 92.503906 343.976562 92.292969 343.46875 C 92.167969 343.160156 92.003906 342.710938 91.925781 342.464844 C 91.851562 342.21875 91.753906 341.910156 91.714844 341.777344 C 91.671875 341.648438 91.640625 341.5 91.640625 341.453125 C 91.636719 341.410156 91.589844 341.214844 91.539062 341.027344 C 91.441406 340.695312 91.371094 340.398438 91.109375 339.214844 C 91.046875 338.929688 90.9375 338.445312 90.867188 338.148438 C 90.792969 337.847656 90.699219 337.445312 90.652344 337.253906 C 90.550781 336.839844 89.96875 335.019531 89.714844 334.328125 C 89.566406 333.921875 89.257812 333.191406 89.03125 332.695312 C 88.980469 332.582031 88.871094 332.339844 88.6875 331.902344 C 88.535156 331.53125 88.339844 330.917969 88.226562 330.40625 C 88.113281 329.941406 88.085938 328.769531 88.167969 328.1875 C 88.199219 327.972656 88.222656 327.441406 88.214844 327.015625 C 88.210938 326.351562 88.1875 326.171875 88.089844 325.839844 C 87.921875 325.277344 87.523438 324.507812 87.121094 323.96875 C 86.71875 323.429688 86.296875 322.84375 86.035156 322.480469 C 85.820312 322.167969 85.359375 321.332031 84.839844 320.304688 C 84.414062 319.46875 84.363281 319.363281 83.585938 317.730469 C 83.308594 317.160156 83.066406 316.652344 83.039062 316.605469 C 83.015625 316.554688 82.867188 316.242188 82.714844 315.910156 C 82.566406 315.582031 82.328125 315.074219 82.1875 314.789062 C 82.046875 314.5 81.871094 314.144531 81.800781 313.996094 C 81.085938 312.5 80.742188 311.851562 80.421875 311.335938 C 80.363281 311.238281 80.28125 311.101562 80.246094 311.03125 C 80.214844 310.960938 80.164062 310.871094 80.132812 310.832031 C 80.105469 310.792969 79.914062 310.476562 79.707031 310.132812 C 79.359375 309.566406 79.082031 309.140625 78.699219 308.597656 C 78.433594 308.222656 77.914062 307.59375 77.308594 306.917969 C 76.652344 306.1875 76.308594 305.703125 76.085938 305.199219 C 75.96875 304.925781 75.953125 304.828125 75.949219 304.320312 C 75.941406 303.785156 75.957031 303.707031 76.136719 303.140625 C 76.246094 302.8125 76.421875 302.335938 76.53125 302.089844 C 76.898438 301.296875 77.363281 299.851562 77.574219 298.890625 C 77.714844 298.246094 77.796875 297.222656 77.832031 295.824219 C 77.847656 295.152344 77.894531 294.253906 77.929688 293.832031 C 77.96875 293.40625 78.003906 292.921875 78.015625 292.757812 C 78.046875 292.414062 78.214844 291.566406 78.382812 290.910156 C 78.542969 290.28125 78.71875 289.417969 78.75 289.0625 C 78.800781 288.519531 78.953125 287.421875 79.023438 287.089844 C 79.0625 286.910156 79.144531 286.453125 79.210938 286.070312 C 79.277344 285.683594 79.382812 285.257812 79.453125 285.105469 C 79.582031 284.828125 79.804688 284.589844 79.945312 284.585938 C 80.167969 284.589844 80.390625 284.917969 80.621094 285.574219 C 80.867188 286.300781 81.304688 287.195312 81.734375 287.878906 C 81.820312 288.011719 81.929688 288.183594 81.972656 288.269531 C 82.289062 288.816406 82.992188 289.613281 83.355469 289.835938 C 83.765625 290.085938 84.582031 290.277344 85.175781 290.277344 C 85.261719 290.277344 85.347656 290.273438 85.421875 290.265625 C 86.027344 290.199219 86.238281 290.058594 87.089844 289.214844 C 87.414062 288.886719 87.8125 288.511719 87.976562 288.382812 C 88.65625 287.820312 89.042969 287.335938 89.433594 286.546875 C 89.828125 285.753906 90.246094 285.160156 91.082031 284.207031 C 91.347656 283.898438 91.652344 283.515625 91.765625 283.351562 C 92.097656 282.84375 92.523438 282.324219 92.765625 282.128906 C 93.566406 281.5 94.085938 280.882812 94.621094 279.9375 C 94.75 279.707031 94.945312 279.371094 95.050781 279.1875 C 95.433594 278.546875 95.523438 278.261719 95.515625 277.761719 C 95.507812 277.335938 95.5 277.300781 95.316406 277.007812 C 95.058594 276.597656 94.589844 276.191406 94.125 275.980469 C 93.550781 275.71875 92.546875 275.390625 92.230469 275.359375 C 92.179688 275.355469 92.136719 275.351562 92.097656 275.351562 C 91.941406 275.351562 91.835938 275.390625 91.554688 275.519531 C 91.335938 275.621094 91.03125 275.726562 90.871094 275.757812 C 90.570312 275.816406 90.496094 275.882812 90.269531 276.269531 C 90.15625 276.460938 90.140625 276.550781 90.148438 276.84375 C 90.152344 277.175781 90.191406 277.285156 90.460938 277.898438 C 90.511719 278.019531 90.539062 278.332031 90.554688 279.125 L 90.574219 280.191406 L 90.402344 280.566406 C 90.15625 281.097656 89.78125 281.476562 88.976562 282.015625 C 88.894531 282.070312 88.785156 282.144531 88.730469 282.179688 C 88.332031 282.449219 88 282.734375 87.550781 283.175781 C 86.96875 283.757812 86.617188 283.96875 86.097656 284.050781 C 86.003906 284.066406 85.925781 284.074219 85.855469 284.074219 C 85.601562 284.074219 85.503906 283.941406 85.28125 283.492188 C 85.152344 283.238281 85.046875 283.007812 85.042969 282.988281 C 85.042969 282.96875 85 282.859375 84.945312 282.75 C 84.890625 282.636719 84.761719 282.355469 84.664062 282.117188 C 84.566406 281.878906 84.328125 281.335938 84.132812 280.90625 C 83.335938 279.160156 83.1875 278.792969 82.761719 277.539062 C 82.632812 277.152344 82.523438 276.804688 82.523438 276.757812 C 82.523438 276.71875 82.492188 276.609375 82.449219 276.523438 C 82.410156 276.433594 82.269531 276.035156 82.136719 275.640625 C 81.851562 274.78125 81.425781 273.941406 80.925781 273.230469 C 80.0625 272.011719 79.667969 271.714844 78.199219 271.171875 C 77.839844 271.042969 77.4375 270.878906 77.300781 270.8125 C 77.160156 270.746094 76.953125 270.636719 76.832031 270.582031 C 76.492188 270.410156 76.15625 270.078125 76.1875 269.9375 C 76.195312 269.871094 76.25 269.609375 76.304688 269.347656 C 76.359375 269.089844 76.421875 268.667969 76.449219 268.425781 C 76.535156 267.554688 76.738281 266.9375 77.027344 266.664062 C 77.351562 266.355469 78.039062 266.15625 79.011719 266.097656 C 79.789062 266.050781 80.109375 265.964844 80.292969 265.769531 C 80.535156 265.492188 80.578125 265.382812 80.617188 264.824219 C 80.636719 264.515625 80.695312 264.144531 80.757812 263.964844 C 80.84375 263.695312 80.851562 263.621094 80.800781 263.425781 C 80.746094 263.222656 80.75 263.1875 80.863281 262.988281 C 80.980469 262.785156 80.984375 262.730469 80.964844 262.21875 C 80.941406 261.570312 80.964844 261.519531 81.410156 261.351562 C 81.5625 261.292969 81.75 261.191406 81.828125 261.128906 C 81.949219 261.027344 81.96875 260.976562 81.96875 260.765625 C 81.964844 260.535156 81.929688 260.460938 81.554688 259.902344 C 81.015625 259.09375 80.914062 258.835938 80.902344 258.222656 C 80.898438 257.964844 80.925781 257.605469 80.957031 257.425781 C 80.988281 257.246094 81.007812 256.886719 81.003906 256.628906 C 80.996094 256.109375 80.980469 256.054688 80.5625 255.242188 C 80.429688 254.984375 80.246094 254.566406 80.148438 254.324219 C 79.890625 253.679688 79.804688 253.503906 79.625 253.285156 C 79.539062 253.179688 79.4375 253 79.40625 252.890625 C 79.242188 252.378906 79.042969 252.128906 78.574219 251.824219 C 77.765625 251.300781 77.007812 251.046875 75.574219 250.824219 C 74.910156 250.71875 74.441406 250.675781 73.730469 250.675781 Z M 73.730469 250.675781"/></g><g clip-path="url(#b)"><path d="M 311.335938 14.480469 L 311.429688 13.921875 L 312.035156 14.386719 C 312.441406 14.699219 312.734375 14.777344 312.921875 14.621094 C 313.109375 14.464844 313.265625 14.371094 313.390625 14.339844 L 313.574219 14.292969 L 313.949219 14.855469 C 314.195312 15.230469 314.910156 15.589844 316.09375 15.933594 C 317.273438 16.273438 317.925781 16.507812 318.050781 16.632812 L 318.238281 16.820312 L 318.097656 17.335938 C 318.003906 17.679688 318.003906 17.929688 318.097656 18.085938 C 318.191406 18.238281 318.316406 18.425781 318.46875 18.644531 C 318.625 18.863281 318.828125 19.378906 319.074219 20.191406 C 319.324219 21 319.386719 21.71875 319.261719 22.339844 L 319.074219 23.277344 L 319.820312 24.027344 C 320.320312 24.523438 320.691406 24.835938 320.941406 24.960938 L 321.3125 25.148438 L 321.359375 25.335938 C 321.390625 25.460938 321.125 25.664062 320.566406 25.945312 C 320.007812 26.226562 319.589844 26.503906 319.308594 26.785156 C 319.027344 27.066406 318.828125 27.707031 318.703125 28.703125 L 318.515625 30.203125 L 317.675781 31.417969 C 317.117188 32.230469 316.824219 32.695312 316.792969 32.820312 L 316.746094 33.007812 L 315.71875 33.289062 C 315.035156 33.476562 314.664062 33.804688 314.601562 34.273438 L 314.507812 34.972656 L 315.300781 35.675781 C 315.828125 36.144531 316.277344 36.628906 316.652344 37.125 C 317.023438 37.625 317.320312 38.515625 317.539062 39.792969 C 317.753906 41.070312 317.800781 41.726562 317.675781 41.757812 C 317.554688 41.789062 317.570312 42.023438 317.722656 42.460938 C 317.878906 42.894531 317.863281 43.800781 317.675781 45.171875 C 317.492188 46.546875 317.367188 47.355469 317.304688 47.605469 C 317.242188 47.855469 317.304688 48.855469 317.492188 50.601562 C 317.675781 52.347656 317.863281 53.46875 318.050781 53.96875 L 318.328125 54.71875 L 318.75 54.859375 C 319.027344 54.953125 319.820312 55.09375 321.125 55.277344 C 322.433594 55.464844 323.894531 55.464844 325.507812 55.277344 C 327.125 55.09375 328.242188 54.90625 328.863281 54.71875 L 329.796875 54.4375 L 330.308594 53.640625 C 330.652344 53.109375 330.929688 52.613281 331.148438 52.144531 C 331.367188 51.675781 331.691406 51.316406 332.128906 51.066406 L 332.78125 50.695312 L 334.273438 50.976562 C 335.265625 51.160156 335.824219 51.285156 335.949219 51.347656 L 336.136719 51.441406 L 336.371094 52.050781 C 336.523438 52.457031 336.664062 52.972656 336.789062 53.59375 C 336.914062 54.21875 336.914062 54.90625 336.789062 55.652344 L 336.601562 56.777344 L 335.902344 57.195312 C 335.4375 57.476562 334.832031 57.679688 334.085938 57.804688 C 333.339844 57.929688 332.285156 58.085938 330.914062 58.273438 C 329.546875 58.460938 328.648438 58.679688 328.210938 58.929688 C 327.777344 59.179688 326.347656 59.675781 323.921875 60.425781 C 321.5 61.175781 319.605469 61.59375 318.238281 61.6875 L 316.1875 61.828125 L 316.558594 62.90625 C 316.808594 63.621094 317.554688 64.230469 318.796875 64.730469 L 320.660156 65.476562 L 324.578125 65.476562 L 325.648438 66.179688 C 326.363281 66.648438 326.84375 66.976562 327.09375 67.164062 L 327.464844 67.441406 L 327.558594 68.472656 C 327.621094 69.160156 327.589844 69.71875 327.464844 70.15625 L 327.28125 70.8125 L 328.445312 71.605469 C 329.222656 72.136719 330.1875 72.792969 331.335938 73.570312 C 332.484375 74.351562 333.339844 75.148438 333.898438 75.957031 C 334.457031 76.769531 334.769531 77.519531 334.832031 78.203125 L 334.925781 79.234375 L 334.039062 80.402344 C 333.449219 81.183594 332.90625 81.757812 332.40625 82.132812 C 331.910156 82.507812 331.539062 82.726562 331.289062 82.789062 L 330.914062 82.882812 L 330.542969 83.445312 C 330.292969 83.816406 329.71875 84.332031 328.816406 84.988281 C 327.917969 85.644531 326.984375 86.328125 326.019531 87.046875 C 325.058594 87.765625 324.125 88.449219 323.222656 89.105469 C 322.324219 89.761719 321.296875 90.539062 320.148438 91.445312 C 319 92.347656 318.160156 93.066406 317.628906 93.597656 C 317.101562 94.125 316.558594 94.890625 316 95.890625 C 315.441406 96.886719 315.128906 97.824219 315.066406 98.695312 C 315.003906 99.570312 315.488281 100.925781 316.511719 102.765625 C 317.539062 104.605469 318.222656 105.730469 318.5625 106.136719 C 318.90625 106.539062 319.089844 106.867188 319.121094 107.117188 L 319.167969 107.492188 L 317.957031 107.539062 C 317.148438 107.570312 316.480469 107.351562 315.953125 106.882812 L 315.160156 106.183594 L 314.742188 105.246094 L 314.320312 104.3125 L 313.667969 103.890625 C 313.234375 103.609375 312.859375 103.25 312.550781 102.8125 C 312.238281 102.375 311.710938 101.972656 310.964844 101.597656 C 310.21875 101.222656 309.457031 100.894531 308.679688 100.613281 C 307.902344 100.332031 307.40625 100.117188 307.1875 99.960938 C 306.972656 99.804688 306.785156 99.648438 306.628906 99.492188 C 306.472656 99.335938 306.367188 99.195312 306.304688 99.070312 L 306.210938 98.882812 L 306.488281 97.855469 C 306.675781 97.167969 307.15625 96.558594 307.933594 96.03125 C 308.710938 95.5 309.613281 94.875 310.636719 94.15625 C 311.664062 93.441406 312.503906 92.628906 313.15625 91.726562 C 313.808594 90.820312 314.554688 89.949219 315.394531 89.105469 C 316.230469 88.261719 316.871094 87.59375 317.304688 87.09375 C 317.738281 86.59375 318.003906 86.3125 318.097656 86.25 C 318.191406 86.1875 318.300781 86.15625 318.421875 86.15625 L 318.609375 86.15625 L 318.984375 85.269531 C 319.230469 84.675781 319.558594 84.050781 319.960938 83.398438 C 320.367188 82.742188 320.988281 81.976562 321.824219 81.105469 L 323.085938 79.792969 L 321.453125 79.328125 C 320.367188 79.015625 319.652344 79 319.308594 79.28125 C 318.96875 79.5625 318.71875 79.746094 318.5625 79.839844 C 318.40625 79.933594 318.222656 80.152344 318.003906 80.496094 L 317.675781 81.011719 L 316.558594 80.730469 C 315.8125 80.542969 315.222656 80.355469 314.789062 80.167969 C 314.351562 79.980469 313.714844 79.65625 312.875 79.1875 C 312.035156 78.71875 311.351562 78.3125 310.824219 77.96875 C 310.296875 77.628906 309.910156 77.425781 309.660156 77.363281 L 309.285156 77.269531 L 308.820312 77.550781 C 308.511719 77.734375 307.6875 78.625 306.351562 80.214844 C 305.015625 81.804688 304.191406 83.101562 303.878906 84.097656 C 303.570312 85.097656 303.195312 86.21875 302.761719 87.46875 C 302.324219 88.714844 301.84375 89.667969 301.316406 90.320312 C 300.789062 90.976562 300.382812 91.445312 300.105469 91.726562 L 299.683594 92.144531 L 299.125 93.644531 C 298.75 94.640625 298.113281 95.9375 297.214844 97.527344 L 295.863281 99.914062 L 294.554688 100.566406 C 293.6875 101.003906 293.035156 101.347656 292.597656 101.597656 C 292.164062 101.847656 291.527344 102.207031 290.6875 102.671875 C 289.847656 103.140625 289.007812 103.671875 288.171875 104.265625 C 287.332031 104.855469 286.027344 105.699219 284.253906 106.789062 C 282.484375 107.882812 281.054688 108.847656 279.964844 109.691406 C 278.878906 110.53125 278.070312 111.1875 277.542969 111.65625 C 277.015625 112.125 276.4375 112.792969 275.816406 113.667969 C 275.195312 114.542969 274.605469 115.539062 274.046875 116.660156 C 273.488281 117.785156 273.050781 119.5625 272.742188 121.996094 C 272.429688 124.429688 272.257812 126.175781 272.226562 127.234375 C 272.195312 128.296875 272.058594 128.8125 271.808594 128.78125 L 271.4375 128.734375 L 271.015625 128.5 C 270.738281 128.34375 270.519531 128.1875 270.363281 128.03125 C 270.207031 127.875 270.054688 127.78125 269.898438 127.75 C 269.742188 127.71875 269.554688 127.546875 269.339844 127.234375 L 269.011719 126.769531 L 268.5 125.363281 C 268.15625 124.429688 267.925781 123.804688 267.800781 123.492188 C 267.675781 123.179688 267.488281 121.464844 267.242188 118.347656 L 266.867188 113.667969 L 267.378906 113.246094 C 267.722656 112.964844 268.203125 112.636719 268.824219 112.265625 C 269.445312 111.890625 270.269531 111.34375 271.296875 110.625 C 272.320312 109.910156 273.828125 108.425781 275.816406 106.183594 C 277.804688 103.9375 279.097656 102.421875 279.6875 101.644531 C 280.277344 100.863281 281.007812 100.164062 281.878906 99.539062 C 282.746094 98.914062 284.128906 98.027344 286.027344 96.871094 C 287.921875 95.71875 289.117188 94.859375 289.617188 94.296875 C 290.113281 93.738281 290.484375 93.144531 290.734375 92.519531 L 291.105469 91.585938 L 290.828125 89.527344 C 290.640625 88.152344 290.765625 86.71875 291.199219 85.222656 C 291.636719 83.726562 291.851562 82.789062 291.851562 82.414062 L 291.851562 81.851562 L 292.785156 80.074219 C 293.40625 78.890625 293.75 77.671875 293.8125 76.425781 C 293.871094 75.179688 293.871094 73.371094 293.8125 71 L 293.71875 67.441406 L 294.371094 66.789062 C 294.804688 66.351562 295.007812 65.835938 294.976562 65.246094 L 294.929688 64.355469 L 295.070312 63.933594 C 295.164062 63.652344 295.347656 63.308594 295.628906 62.90625 C 295.910156 62.5 296.625 61.65625 297.773438 60.378906 C 298.921875 59.101562 299.558594 58.304688 299.683594 57.992188 C 299.808594 57.679688 299.839844 56.964844 299.777344 55.839844 C 299.714844 54.71875 299.21875 52.503906 298.285156 49.195312 C 297.351562 45.890625 296.855469 43.644531 296.792969 42.460938 L 296.699219 40.683594 L 296.09375 40.074219 C 295.691406 39.667969 295.378906 39.230469 295.164062 38.761719 C 294.945312 38.296875 294.898438 37.25 295.023438 35.628906 L 295.210938 33.195312 L 295.910156 32.867188 C 296.375 32.648438 296.839844 32.371094 297.308594 32.027344 C 297.773438 31.683594 298.363281 31.183594 299.078125 30.527344 C 299.792969 29.875 300.492188 29.328125 301.175781 28.890625 C 301.859375 28.453125 302.511719 28.144531 303.132812 27.957031 C 303.753906 27.769531 304.5625 27.660156 305.558594 27.628906 L 307.050781 27.582031 L 306.722656 26.179688 C 306.503906 25.242188 306.335938 24.554688 306.210938 24.121094 C 306.085938 23.683594 306.117188 22.714844 306.304688 21.21875 C 306.488281 19.722656 306.816406 18.535156 307.28125 17.664062 C 307.75 16.789062 308.074219 16.351562 308.261719 16.351562 C 308.449219 16.351562 308.539062 16.148438 308.539062 15.746094 C 308.539062 15.339844 308.695312 15.152344 309.007812 15.183594 C 309.316406 15.214844 309.535156 15.089844 309.660156 14.808594 C 309.785156 14.527344 309.953125 14.433594 310.171875 14.527344 C 310.390625 14.621094 310.515625 14.761719 310.546875 14.949219 C 310.578125 15.136719 310.699219 15.199219 310.917969 15.136719 C 311.136719 15.074219 311.277344 14.855469 311.335938 14.480469 Z M 311.335938 14.480469" fill-rule="evenodd"/></g><g clip-path="url(#c)"><path transform="matrix(.18646 0 0 .18714 262.3 11.675)" fill="none" d="M 262.989706 14.993644 L 263.492499 12.008802 L 266.739701 14.492692 C 268.918469 16.162533 270.489695 16.579993 271.49528 15.745073 C 272.500866 14.910152 273.338853 14.409199 274.009243 14.242215 L 274.993879 13.991739 L 277.005049 16.997454 C 278.32488 19.001263 282.158673 20.921581 288.506429 22.758407 C 294.833235 24.574359 298.331834 25.82674 299.002224 26.494677 L 300.007809 27.496582 L 299.25362 30.25182 C 298.750828 32.088646 298.750828 33.424519 299.25362 34.259439 C 299.756413 35.073487 300.426803 36.075392 301.243841 37.244281 C 302.081828 38.41317 303.171212 41.168408 304.491043 45.509996 C 305.831823 49.830711 306.167018 53.671346 305.496628 56.990156 L 304.491043 61.99968 L 308.492434 66.0073 C 311.173994 68.658173 313.164214 70.328014 314.504995 70.995951 L 316.495215 71.997856 L 316.746611 72.999761 C 316.914209 73.667697 315.48963 74.753094 312.493824 76.255951 C 309.498019 77.758809 307.256402 79.240793 305.748024 80.74365 C 304.239646 82.246508 303.171212 85.669682 302.500822 90.992302 L 301.495237 99.007541 L 296.991054 105.499049 C 293.995248 109.840637 292.424021 112.324526 292.256424 112.992463 L 292.005027 113.994368 L 286.495259 115.497225 C 282.829063 116.49913 280.838842 118.252463 280.503647 120.757226 L 280.000855 124.493496 L 284.253642 128.250639 C 287.08185 130.755401 289.491064 133.343655 291.502235 135.994529 C 293.492455 138.666275 295.084632 143.425323 296.257814 150.2508 C 297.410047 157.076277 297.661444 160.582944 296.991054 160.749928 C 296.341613 160.916912 296.425412 162.169293 297.24245 164.507071 C 298.080437 166.823976 297.996639 171.666516 296.991054 178.992945 C 296.006418 186.340248 295.336028 190.660962 295.000833 191.996836 C 294.665638 193.332709 295.000833 198.676201 296.006418 208.00644 C 296.991054 217.336679 297.996639 223.327235 299.002224 225.998982 L 300.489652 230.006601 L 302.752218 230.75803 C 304.239646 231.258982 308.492434 232.010411 315.48963 232.991443 C 322.507776 233.993348 330.34296 233.993348 338.995183 232.991443 C 347.668354 232.010411 353.659966 231.008506 356.990967 230.006601 L 361.997943 228.503744 L 364.742352 224.245648 C 366.585925 221.406918 368.073353 218.756045 369.246535 216.251282 C 370.419718 213.74652 372.158542 211.826203 374.504908 210.490329 L 378.003506 208.507393 L 386.006288 210.01025 C 391.327509 210.991282 394.323315 211.659218 394.993705 211.993187 L 395.99929 212.494139 L 397.256271 215.75033 C 398.073309 217.921124 398.827498 220.676362 399.497888 223.995172 C 400.168278 227.334855 400.168278 231.008506 399.497888 234.995252 L 398.492303 241.006682 L 394.742308 243.240094 C 392.249295 244.742952 389.002093 245.828349 385.000702 246.496285 C 380.999312 247.164222 375.342895 247.999143 367.989554 249.001047 C 360.657162 250.002952 355.838734 251.171841 353.492368 252.507714 C 351.166953 253.843588 343.499366 256.494461 330.489608 260.50208 C 317.5008 264.5097 307.340201 266.743113 300.007809 267.244065 L 289.009222 267.995494 L 290.999442 273.756447 C 292.340222 277.576209 296.341613 280.8324 303.003615 283.504146 L 312.996617 287.490892 L 334.009156 287.490892 L 339.749371 291.248036 C 343.583165 293.752798 346.159977 295.506131 347.500757 296.508036 L 349.490977 297.99002 L 349.99377 303.500497 C 350.328965 307.174148 350.161368 310.15899 349.490977 312.496768 L 348.506342 316.003435 L 354.74935 320.240657 C 358.918338 323.079388 364.092912 326.586055 370.25212 330.739785 C 376.411329 334.914389 380.999312 339.172485 383.995117 343.493199 C 386.990923 347.834787 388.666898 351.842407 389.002093 355.495185 L 389.504886 361.005661 L 384.749306 367.246694 C 381.585903 371.421297 378.673896 374.489631 375.992336 376.493441 C 373.331725 378.49725 371.341504 379.666139 370.000724 380.000108 L 367.989554 380.50106 L 365.999333 383.506775 C 364.658553 385.489711 361.578949 388.24495 356.73957 391.751617 C 351.921141 395.258284 346.914166 398.911062 341.739592 402.751697 C 336.585968 406.592332 331.578992 410.245111 326.739614 413.751778 C 321.921185 417.258445 316.411416 421.412175 310.252208 426.254715 C 304.092999 431.076382 299.588815 434.917018 296.739657 437.755748 C 293.911449 440.573606 290.999442 444.664717 288.003636 450.00821 C 285.007831 455.330829 283.331855 460.340353 282.99666 464.995036 C 282.661465 469.670592 285.259227 476.91353 290.748046 486.744721 C 296.257814 496.575913 299.92401 502.587342 301.746633 504.758136 C 303.590206 506.908056 304.574841 508.66139 304.742439 509.997263 L 304.993835 512.001073 L 298.499431 512.251549 C 294.162845 512.418533 290.580448 511.249644 287.75224 508.744882 L 283.499453 505.008612 L 281.257836 499.999087 L 278.99527 495.010436 L 275.496671 492.75615 C 273.171256 491.253293 271.160085 489.332975 269.50506 486.995197 C 267.829085 484.657419 265.000876 482.507498 260.999486 480.503689 C 256.998095 478.499879 252.912905 476.746546 248.743917 475.243688 C 244.574928 473.740831 241.914318 472.592815 240.741135 471.757894 C 239.588902 470.922974 238.583317 470.088053 237.745329 469.253132 C 236.907342 468.418211 236.3417 467.666783 236.006505 466.998846 L 235.503713 465.996941 L 236.991141 460.507338 C 237.996726 456.833686 240.573538 453.577496 244.742526 450.759638 C 248.911514 447.920908 253.750893 444.581225 259.239712 440.74059 C 264.74948 436.920827 269.253664 432.57924 272.752262 427.757573 C 276.25086 422.915032 280.252251 418.260349 284.756434 413.751778 C 289.239668 409.243206 292.675417 405.67392 295.000833 403.002173 C 297.326249 400.330427 298.750828 398.82757 299.25362 398.493601 C 299.756413 398.159633 300.343004 397.992649 300.992444 397.992649 L 301.99803 397.992649 L 304.0092 393.254474 C 305.32903 390.081775 307.088804 386.742092 309.246622 383.256298 C 311.42539 379.749631 314.756391 375.65852 319.239625 371.003837 L 326.006375 363.990503 L 317.249404 361.506614 C 311.42539 359.836772 307.591597 359.75328 305.748024 361.256138 C 303.925401 362.758995 302.584621 363.740027 301.746633 364.240979 C 300.908646 364.741932 299.92401 365.910821 298.750828 367.747646 L 296.991054 370.502885 L 290.999442 369.000027 C 286.998051 367.998122 283.834648 366.996218 281.509232 365.994313 C 279.162867 364.992408 275.748068 363.259947 271.243884 360.755185 C 266.739701 358.250423 263.073505 356.079629 260.245297 354.242804 C 257.417089 352.426851 255.343069 351.341454 254.002289 351.007486 L 251.991119 350.506533 L 249.498106 352.009391 C 247.84308 352.990423 243.422695 357.749471 236.257901 366.244789 C 229.093107 374.740107 224.672723 381.669949 222.996747 386.992569 C 221.341722 392.336061 219.330552 398.326617 217.005136 405.005983 C 214.658771 411.664476 212.081959 416.757492 209.253751 420.243286 C 206.425542 423.749953 204.246775 426.254715 202.759347 427.757573 L 200.49678 429.990985 L 197.500974 438.006224 C 195.489804 443.328844 192.075005 450.258686 187.256576 458.754004 L 180.007983 471.507418 L 172.989837 474.993212 C 168.339006 477.33099 164.840407 479.167816 162.494042 480.503689 C 160.168626 481.839562 156.753827 483.75988 152.249643 486.243769 C 147.74546 488.748531 143.241277 491.587261 138.758043 494.75996 C 134.253859 497.911786 127.256663 502.420358 117.745503 508.24393 C 108.255294 514.088375 100.587707 519.24401 94.742744 523.752582 C 88.91873 528.240281 84.582144 531.746948 81.753936 534.25171 C 78.925727 536.756472 75.825173 540.325758 72.494172 545.001314 C 69.163172 549.67687 65.999768 554.99949 63.003963 560.990046 C 60.008157 567.001475 57.661792 576.498698 56.006766 589.502588 C 54.330791 602.506478 53.409005 611.836717 53.241407 617.493305 C 53.07381 623.170766 52.34057 625.926004 50.99979 625.75902 L 49.00957 625.508544 L 46.747003 624.256163 C 45.259575 623.421242 44.086392 622.586321 43.248405 621.751401 C 42.410417 620.91648 41.593379 620.415528 40.755392 620.248543 C 39.917404 620.081559 38.911819 619.163147 37.759586 617.493305 L 35.999812 615.009416 L 33.255403 607.49513 C 31.41183 602.506478 30.175798 599.166795 29.505408 597.496954 C 28.835018 595.827113 27.829433 586.663858 26.509602 570.007189 L 24.498432 545.001314 L 27.242841 542.747028 C 29.086414 541.244171 31.663226 539.490837 34.994227 537.507901 C 38.325228 535.504091 42.745612 532.581868 48.255381 528.741233 C 53.7442 524.921471 61.83078 516.989724 72.494172 505.008612 C 83.157565 493.006626 90.091912 484.907896 93.255316 480.754165 C 96.418719 476.579561 100.336311 472.843291 105.008092 469.503608 C 109.658923 466.163925 117.075113 461.42575 127.256663 455.247337 C 137.417263 449.089797 143.827868 444.497733 146.509428 441.492018 C 149.170039 438.507177 151.160259 435.334478 152.50104 431.994795 L 154.49126 427.006144 L 153.003832 416.006063 C 151.998247 408.658761 152.668637 400.998364 154.994053 393.003998 C 157.340418 385.009632 158.492651 380.000108 158.492651 377.996298 L 158.492651 374.990583 L 163.499627 365.49336 C 166.830628 359.168836 168.674201 352.656454 169.009396 345.997962 C 169.323641 339.339469 169.323641 329.675262 169.009396 317.00534 L 168.506603 297.99002 L 172.005201 294.504226 C 174.330617 292.166448 175.420001 289.41121 175.252403 286.259384 L 175.001007 281.500336 L 175.755196 279.24605 C 176.257988 277.743193 177.242624 275.906367 178.751002 273.756447 C 180.259379 271.585653 184.093173 267.077081 190.252382 260.251604 C 196.41159 253.426127 199.82639 249.168032 200.49678 247.49819 C 201.16717 245.828349 201.334768 242.008586 200.999573 235.997157 C 200.664378 230.006601 198.003767 218.1716 192.996791 200.492154 C 187.989815 182.833581 185.329204 170.831595 184.994009 164.507071 L 184.491217 155.009848 L 181.244015 151.753657 C 179.086197 149.582863 177.410221 147.245085 176.257988 144.740323 C 175.084806 142.256434 174.833409 136.662465 175.5038 128.000163 L 176.509385 114.996273 L 180.259379 113.242939 C 182.752392 112.07405 185.245406 110.592066 187.759368 108.75524 C 190.252382 106.918415 193.415785 104.246668 197.249578 100.740001 C 201.083371 97.254207 204.833366 94.331985 208.499562 91.994207 C 212.165758 89.656429 215.664356 88.00746 218.995357 87.005556 C 222.326357 86.003651 226.662943 85.419206 232.005114 85.252222 L 240.007896 85.001746 L 238.248122 77.508332 C 237.074939 72.498808 236.174103 68.825157 235.503713 66.508252 C 234.833322 64.170474 235.00092 58.993966 236.006505 50.9996 C 236.991141 43.005234 238.750915 36.659837 241.243928 32.005154 C 243.757891 27.329598 245.496715 24.99182 246.5023 24.99182 C 247.507885 24.99182 247.989728 23.906423 247.989728 21.756502 C 247.989728 19.585708 248.827716 18.583803 250.503691 18.750787 C 252.158716 18.917771 253.331899 18.249835 254.002289 16.746977 C 254.672679 15.24412 255.573516 14.743168 256.746699 15.24412 C 257.919881 15.745073 258.590271 16.496501 258.757869 17.498406 C 258.925466 18.500311 259.574907 18.834279 260.748089 18.500311 C 261.921272 18.166343 262.675461 16.997454 262.989706 14.993644 Z M 262.989706 14.993644" stroke="#000" stroke-width="2"/></g><g fill="#F00"><use x="106.286" y="181.146" xmlns:xlink="http://www.w3.org/1999/xlink" xlink:href="#d" xlink:type="simple" xlink:actuate="onLoad" xlink:show="embed"/></g><g fill="#F00"><use x="166.261" y="181.146" xmlns:xlink="http://www.w3.org/1999/xlink" xlink:href="#e" xlink:type="simple" xlink:actuate="onLoad" xlink:show="embed"/></g><g fill="#F00"><use x="219.177" y="181.146" xmlns:xlink="http://www.w3.org/1999/xlink" xlink:href="#e" xlink:type="simple" xlink:actuate="onLoad" xlink:show="embed"/></g><g fill="#0FF"><use x="112.488" y="180.385" xmlns:xlink="http://www.w3.org/1999/xlink" xlink:href="#d" xlink:type="simple" xlink:actuate="onLoad" xlink:show="embed"/></g><g fill="#0FF"><use x="172.463" y="180.385" xmlns:xlink="http://www.w3.org/1999/xlink" xlink:href="#e" xlink:type="simple" xlink:actuate="onLoad" xlink:show="embed"/></g><g fill="#0FF"><use x="225.379" y="180.385" xmlns:xlink="http://www.w3.org/1999/xlink" xlink:href="#e" xlink:type="simple" xlink:actuate="onLoad" xlink:show="embed"/></g><g fill="#FCFFFF"><use x="109.387" y="180.765" xmlns:xlink="http://www.w3.org/1999/xlink" xlink:href="#d" xlink:type="simple" xlink:actuate="onLoad" xlink:show="embed"/></g><g fill="#FCFFFF"><use x="169.362" y="180.765" xmlns:xlink="http://www.w3.org/1999/xlink" xlink:href="#e" xlink:type="simple" xlink:actuate="onLoad" xlink:show="embed"/></g><g fill="#FCFFFF"><use x="222.278" y="180.765" xmlns:xlink="http://www.w3.org/1999/xlink" xlink:href="#e" xlink:type="simple" xlink:actuate="onLoad" xlink:show="embed"/></g><g fill="#F00"><use x="26.469" y="236.646" xmlns:xlink="http://www.w3.org/1999/xlink" xlink:href="#f" xlink:type="simple" xlink:actuate="onLoad" xlink:show="embed"/></g><g fill="#F00"><use x="79.385" y="236.646" xmlns:xlink="http://www.w3.org/1999/xlink" xlink:href="#g" xlink:type="simple" xlink:actuate="onLoad" xlink:show="embed"/></g><g fill="#F00"><use x="133.863" y="236.646" xmlns:xlink="http://www.w3.org/1999/xlink" xlink:href="#e" xlink:type="simple" xlink:actuate="onLoad" xlink:show="embed"/></g><g fill="#F00"><use x="186.779" y="236.646" xmlns:xlink="http://www.w3.org/1999/xlink" xlink:href="#h" xlink:type="simple" xlink:actuate="onLoad" xlink:show="embed"/></g><g fill="#F00"><use x="245.317" y="236.646" xmlns:xlink="http://www.w3.org/1999/xlink" xlink:href="#i" xlink:type="simple" xlink:actuate="onLoad" xlink:show="embed"/></g><g fill="#F00"><use x="300.107" y="236.646" xmlns:xlink="http://www.w3.org/1999/xlink" xlink:href="#j" xlink:type="simple" xlink:actuate="onLoad" xlink:show="embed"/></g><g fill="#0FF"><use x="32.672" y="235.885" xmlns:xlink="http://www.w3.org/1999/xlink" xlink:href="#f" xlink:type="simple" xlink:actuate="onLoad" xlink:show="embed"/></g><g fill="#0FF"><use x="85.587" y="235.885" xmlns:xlink="http://www.w3.org/1999/xlink" xlink:href="#g" xlink:type="simple" xlink:actuate="onLoad" xlink:show="embed"/></g><g fill="#0FF"><use x="140.065" y="235.885" xmlns:xlink="http://www.w3.org/1999/xlink" xlink:href="#e" xlink:type="simple" xlink:actuate="onLoad" xlink:show="embed"/></g><g fill="#0FF"><use x="192.981" y="235.885" xmlns:xlink="http://www.w3.org/1999/xlink" xlink:href="#h" xlink:type="simple" xlink:actuate="onLoad" xlink:show="embed"/></g><g fill="#0FF"><use x="251.519" y="235.885" xmlns:xlink="http://www.w3.org/1999/xlink" xlink:href="#i" xlink:type="simple" xlink:actuate="onLoad" xlink:show="embed"/></g><g fill="#0FF"><use x="306.309" y="235.885" xmlns:xlink="http://www.w3.org/1999/xlink" xlink:href="#j" xlink:type="simple" xlink:actuate="onLoad" xlink:show="embed"/></g><g fill="#FCFFFF"><use x="29.57" y="236.265" xmlns:xlink="http://www.w3.org/1999/xlink" xlink:href="#f" xlink:type="simple" xlink:actuate="onLoad" xlink:show="embed"/></g><g fill="#FCFFFF"><use x="82.486" y="236.265" xmlns:xlink="http://www.w3.org/1999/xlink" xlink:href="#g" xlink:type="simple" xlink:actuate="onLoad" xlink:show="embed"/></g><g fill="#FCFFFF"><use x="136.964" y="236.265" xmlns:xlink="http://www.w3.org/1999/xlink" xlink:href="#e" xlink:type="simple" xlink:actuate="onLoad" xlink:show="embed"/></g><g fill="#FCFFFF"><use x="189.88" y="236.265" xmlns:xlink="http://www.w3.org/1999/xlink" xlink:href="#h" xlink:type="simple" xlink:actuate="onLoad" xlink:show="embed"/></g><g fill="#FCFFFF"><use x="248.418" y="236.265" xmlns:xlink="http://www.w3.org/1999/xlink" xlink:href="#i" xlink:type="simple" xlink:actuate="onLoad" xlink:show="embed"/></g><g fill="#FCFFFF"><use x="303.208" y="236.265" xmlns:xlink="http://www.w3.org/1999/xlink" xlink:href="#j" xlink:type="simple" xlink:actuate="onLoad" xlink:show="embed"/></g></svg>